<?xml version="1.0" encoding="utf-8"?>
<!-- Generator: Adobe Illustrator 24.3.0, SVG Export Plug-In . SVG Version: 6.00 Build 0)  -->
<svg version="1.1" xmlns="http://www.w3.org/2000/svg" xmlns:xlink="http://www.w3.org/1999/xlink" x="0px" y="0px"
	 viewBox="0 0 21 19.1" style="enable-background:new 0 0 21 19.1;" xml:space="preserve">
<style type="text/css">
	.st0{fill:url(#star_3_);}
	.st1{opacity:0.8;fill:url(#SVGID_1_);enable-background:new    ;}
	.st2{opacity:0.69;fill:none;stroke:#FFFFFF;stroke-width:0.4648;stroke-miterlimit:3.8889;enable-background:new    ;}
	.st3{fill:url(#SVGID_2_);}
	.st4{fill:none;stroke:#C4A000;stroke-width:0.4648;stroke-miterlimit:3.8889;}
	.st5{fill:url(#star_4_);stroke:#C4A000;stroke-width:0.4648;stroke-miterlimit:3.8889;}
	.st6{opacity:0.8;fill:url(#hl_1_);enable-background:new    ;}
</style>
<g id="Half_Star">
	
		<radialGradient id="star_3_" cx="850.8196" cy="2032.9454" r="15.8697" gradientTransform="matrix(0.4648 -9.296457e-02 9.296456e-02 0.4648 -577.9302 -855.7805)" gradientUnits="userSpaceOnUse">
		<stop  offset="0" style="stop-color:#E6CF00"/>
		<stop  offset="1" style="stop-color:#FDE94A"/>
	</radialGradient>
	<path id="star_1_" class="st0" d="M10.5,15.6l-6.2,3.1l1.2-6.5l-5-4.8l6.9-1l3.1-5.9V15.6z"/>
	
		<linearGradient id="SVGID_1_" gradientUnits="userSpaceOnUse" x1="33.7578" y1="1070.0436" x2="38.1382" y2="1083.0404" gradientTransform="matrix(0.9722 0 0 0.9722 -27.4995 -1037.4113)">
		<stop  offset="0" style="stop-color:#FCF9FB"/>
		<stop  offset="1" style="stop-color:#FCF9FB;stop-opacity:0"/>
	</linearGradient>
	<path class="st1" d="M10.5,1.1L7.6,6.7L1.1,7.6L5.8,12l-0.3,1.5c2.2-0.2,3.8-1.7,4.9-3.2"/>
	<path id="ol_1_" class="st2" d="M16.1,17.8L10.5,15L5,17.8L6,11.9L1.6,7.8l6.1-0.9l2.8-5.3l2.8,5.3l6.1,0.9L15,12L16.1,17.8z"/>
	<linearGradient id="SVGID_2_" gradientUnits="userSpaceOnUse" x1="7.2863" y1="-3.0237" x2="7.2863" y2="-3.0237">
		<stop  offset="0" style="stop-color:#FCF9FB"/>
		<stop  offset="1" style="stop-color:#FCF9FB;stop-opacity:0"/>
	</linearGradient>
	<path class="st3" d="M7.3-3"/>
	<path id="star_2_" class="st4" d="M16.7,18.7l-6.2-3.1l-6.2,3.1l1.2-6.5l-5-4.8l6.9-1l3.1-5.9l3.1,6l6.9,1l-5,4.7L16.7,18.7z"/>
</g>
<g id="Star">
	
		<radialGradient id="star_4_" cx="774.1396" cy="2020.9845" r="22" gradientTransform="matrix(0.4648 -9.296457e-02 9.296456e-02 0.4648 -577.9302 -855.7805)" gradientUnits="userSpaceOnUse">
		<stop  offset="0" style="stop-color:#E6CF00"/>
		<stop  offset="1" style="stop-color:#FDE94A"/>
	</radialGradient>
	<path id="star" class="st5" d="M-24.3,19.8l-6.2-3.1l-6.2,3.1l1.2-6.5l-5-4.8l6.9-1l3.1-5.9l3.1,6l6.9,1l-5,4.7L-24.3,19.8z"/>
	
		<linearGradient id="hl_1_" gradientUnits="userSpaceOnUse" x1="-5.0717" y1="1070.0795" x2="-0.5918" y2="1083.3716" gradientTransform="matrix(0.9722 0 0 0.9722 -27.4995 -1037.4113)">
		<stop  offset="0" style="stop-color:#FCF9FB"/>
		<stop  offset="1" style="stop-color:#FCF9FB;stop-opacity:0"/>
	</linearGradient>
	<path id="hl" class="st6" d="M-33.4,7.9l2.9-5.6l2.9,5.6l6.5,0.9l-1.7,1.6c-7.7-1.8-4.4,3.4-12.8,4.3l0.3-1.5l-4.7-4.4L-33.4,7.9z"
		/>
	<path id="ol" class="st2" d="M-24.9,18.9l-5.5-2.8l-5.5,2.8L-35,13l-4.5-4.1l6.1-0.9l2.8-5.3l2.8,5.3l6.1,0.9l-4.5,4.2L-24.9,18.9z
		"/>
</g>
</svg>
